<?xml version="1.0" encoding="UTF-8" standalone="no"?>
<svg
   width="24px"
   height="24px"
   viewBox="0 0 24 24"
   role="img"
   version="1.1"
   id="svg19"
   sodipodi:docname="fmod.svg"
   inkscape:version="1.1.1 (3bf5ae0d25, 2021-09-20)"
   xmlns:inkscape="http://www.inkscape.org/namespaces/inkscape"
   xmlns:sodipodi="http://sodipodi.sourceforge.net/DTD/sodipodi-0.dtd"
   xmlns="http://www.w3.org/2000/svg"
   xmlns:svg="http://www.w3.org/2000/svg">
  <defs
     id="defs23" />
  <sodipodi:namedview
     id="namedview21"
     pagecolor="#505050"
     bordercolor="#eeeeee"
     borderopacity="1"
     inkscape:pageshadow="0"
     inkscape:pageopacity="0"
     inkscape:pagecheckerboard="0"
     showgrid="false"
     inkscape:zoom="22.627417"
     inkscape:cx="41.255261"
     inkscape:cy="23.599689"
     inkscape:window-width="1920"
     inkscape:window-height="1018"
     inkscape:window-x="-6"
     inkscape:window-y="-6"
     inkscape:window-maximized="1"
     inkscape:current-layer="svg19" />
  <path
     d="M3.352 10.17a.903.903 0 0 0-.903.903v4.07H1.127v-2.814H0v-1.318h1.128a2.225 2.225 0 0 1 2.224-2.17h1.321v1.322zm7.326 1.84a.25.25 0 0 0-.238.174l-.532 1.834a1.564 1.564 0 0 1-3.001 0l-.532-1.835a.252.252 0 0 0-.477 0l-.532 1.835a1.572 1.572 0 0 1-1.512 1.123h-.368v-1.32h.373a.247.247 0 0 0 .235-.172l.532-1.835a1.57 1.57 0 0 1 3.009 0l.536 1.837a.246.246 0 0 0 .471 0l.532-1.834a1.57 1.57 0 0 1 3.009 0l.532 1.834a.247.247 0 0 0 .235.174h.374v1.319h-.369a1.571 1.571 0 0 1-1.512-1.123l-.532-1.835a.252.252 0 0 0-.233-.176zm2.69.906a2.225 2.225 0 1 1 2.225 2.225 2.225 2.225 0 0 1-2.225-2.225zm3.128 0a.903.903 0 1 0-.903.903.903.903 0 0 0 .903-.903zm4.674.46a.962.962 0 0 0 .067-.123.67.67 0 0 1 1.266.308.654.654 0 0 1-.055.262l-.019.04a2.268 2.268 0 0 1-2.034 1.276 2.225 2.225 0 0 1 0-4.45h.098a2.25 2.25 0 0 1 1.014.29V8.841h1.322v3.01a.742.742 0 0 1-.712.721 1.59 1.59 0 0 1-1.07-.373.902.902 0 0 0-.549-.191H20.4a.903.903 0 1 0 .776 1.366zM4.228 11.624a.704.704 0 0 1-.704.704.704.704 0 0 1-.704-.704.704.704 0 0 1 .704-.704.704.704 0 0 1 .704.704zm18.398 2.835a.687.687 0 1 0 .687-.674.678.678 0 0 0-.687.674zm.123 0a.56.56 0 1 1 .561.583.558.558 0 0 1-.565-.583zm.282.383h.124V14.5h.137l.216.34h.137l-.226-.35a.203.203 0 0 0 .209-.216c0-.152-.09-.227-.275-.227h-.307zm.124-.688h.158c.084 0 .175.017.175.121 0 .105-.1.138-.21.138h-.129z"
     id="path17" />
  <path
     style="opacity:1;fill:#ffffff;fill-opacity:1;stroke:#ffccaa;stroke-width:0.0330578;stroke-opacity:1"
     d="M 1.1404959,13.735537 V 12.330579 H 0.5785124 0.01652893 V 11.669421 11.008264 H 0.5785124 1.1404959 l 5.739e-4,-0.09091 C 1.142343,10.715719 1.2460705,10.348236 1.3762527,10.084157 1.557418,9.7166561 1.9668146,9.2955778 2.3206452,9.1128167 2.7426498,8.8948423 2.9569118,8.8595041 3.8565276,8.8595041 h 0.7881005 v 0.6423935 0.6423934 l -0.754559,0.0105 -0.7545592,0.0105 -0.1944341,0.09952 c -0.1204782,0.06166 -0.2355176,0.153381 -0.3024447,0.241128 -0.2098715,0.27516 -0.208879,0.263007 -0.208879,2.557917 v 2.076645 H 1.785124 1.1404959 Z"
     id="path196" />
  <path
     style="opacity:1;fill:#ffffff;fill-opacity:1;stroke:#ffccaa;stroke-width:0.0330578;stroke-opacity:1"
     d="M 3.3748527,12.291845 C 2.8721699,12.180807 2.6634935,11.56898 2.9982611,11.187701 c 0.1622759,-0.184822 0.330409,-0.254955 0.5740284,-0.239442 0.2667403,0.01699 0.4412909,0.131849 0.5588474,0.367754 0.1687167,0.338571 0.060923,0.713485 -0.2572641,0.894786 -0.1651873,0.09412 -0.3234547,0.119827 -0.4990201,0.08105 z"
     id="path235" />
  <path
     style="opacity:1;fill:#ffffff;fill-opacity:1;stroke:#ffccaa;stroke-width:0.0330578;stroke-opacity:1"
     d="m 3.4876033,14.485723 v -0.66476 l 0.2527738,-0.0097 c 0.225981,-0.0086 0.2591174,-0.01842 0.3126217,-0.0923 0.032916,-0.04545 0.1814641,-0.506611 0.3301061,-1.024793 0.1486421,-0.518182 0.309202,-1.023268 0.3567998,-1.122415 0.1798923,-0.374714 0.5852968,-0.702599 1.0078107,-0.815102 0.6925427,-0.184402 1.4769782,0.182192 1.7761973,0.830079 0.050382,0.109091 0.2146883,0.621374 0.3651243,1.138408 0.1769666,0.608216 0.2984119,0.968999 0.3440344,1.022038 0.08712,0.101283 0.2552532,0.110357 0.3449435,0.01862 0.038284,-0.03916 0.1715253,-0.442166 0.348833,-1.055096 0.1617828,-0.559263 0.3306873,-1.074809 0.387328,-1.182237 0.4800879,-0.910563 1.7225141,-1.096201 2.4523011,-0.366413 0.264396,0.264396 0.349531,0.463259 0.662986,1.54865 0.181161,0.627299 0.309699,1.01563 0.349788,1.056761 0.04788,0.04913 0.119999,0.06822 0.294957,0.07811 l 0.231577,0.01309 v 0.640897 0.640898 l -0.22314,-5.75e-4 c -0.661691,-0.0017 -1.253004,-0.329425 -1.506253,-0.83481 -0.04765,-0.09509 -0.214143,-0.610067 -0.369991,-1.144406 -0.155848,-0.534338 -0.297997,-0.998874 -0.315886,-1.0323 -0.07534,-0.140772 -0.250021,-0.165973 -0.37448,-0.05403 -0.06726,0.06049 -0.135967,0.259511 -0.368076,1.066116 -0.1653339,0.574593 -0.3276555,1.071191 -0.3858734,1.18056 C 9.6297008,14.569714 9.3277838,14.853906 9.0673587,14.974955 8.3086817,15.327598 7.4012109,15.01883 7.0241626,14.279754 6.9900658,14.21292 6.828195,13.698667 6.6644494,13.13697 6.3498289,12.057726 6.3224656,11.998814 6.1368336,12.001051 c -0.099216,0.0012 -0.1763735,0.05146 -0.2267595,0.147709 -0.019035,0.03636 -0.1573101,0.490083 -0.3072773,1.008265 -0.1499671,0.518182 -0.3139961,1.023967 -0.3645087,1.123967 -0.122519,0.242551 -0.2885947,0.42943 -0.5154296,0.579995 -0.2486166,0.165022 -0.5219964,0.245798 -0.9129411,0.26975 l -0.3223141,0.01975 z"
     id="path274" />
  <path
     style="opacity:1;fill:#ffffff;fill-opacity:1;stroke:#ffccaa;stroke-width:0.0330578;stroke-opacity:1"
     d="m 15.263983,15.103883 c -0.463153,-0.0692 -0.884587,-0.284325 -1.228033,-0.626855 -0.896699,-0.894307 -0.865132,-2.321435 0.07051,-3.187696 1.088693,-1.007963 2.837572,-0.659077 3.485378,0.695302 0.504156,1.054049 0.04661,2.382301 -0.996796,2.893678 -0.427042,0.209296 -0.901665,0.289729 -1.331059,0.225571 z m 0.702959,-1.363657 c 0.345868,-0.161773 0.527238,-0.447821 0.526983,-0.831135 -1.24e-4,-0.186431 -0.01736,-0.264415 -0.08869,-0.401251 -0.241733,-0.463722 -0.795156,-0.635528 -1.249901,-0.388025 -0.656361,0.357236 -0.607874,1.322454 0.08218,1.635874 0.197127,0.08953 0.519563,0.0827 0.729434,-0.01546 z"
     id="path313" />
  <path
     style="opacity:1;fill:#ffffff;fill-opacity:1;stroke:#ffccaa;stroke-width:0.0330578;stroke-opacity:1"
     d="m 20.231405,15.118102 c -0.243753,-0.02719 -0.508876,-0.08821 -0.661157,-0.152167 -0.48982,-0.205717 -0.914742,-0.599682 -1.137441,-1.054574 -0.179764,-0.367192 -0.23446,-0.601005 -0.23446,-1.00227 0,-0.402754 0.05468,-0.635076 0.237227,-1.007855 0.266961,-0.54517 0.842224,-0.997566 1.448724,-1.1393 0.445034,-0.104001 1.088405,-0.03964 1.450553,0.145118 0.07347,0.03748 0.14162,0.06815 0.151435,0.06815 0.0098,0 0.01785,-0.476033 0.01785,-1.0578516 V 8.8595041 h 0.662372 0.662373 l -0.0095,1.5785129 c -0.0094,1.558635 -0.0104,1.580241 -0.0829,1.71581 -0.268668,0.502414 -0.924409,0.540467 -1.600795,0.0929 -0.327697,-0.21684 -0.463893,-0.259016 -0.772066,-0.239085 -0.279829,0.0181 -0.448483,0.09745 -0.633312,0.297964 -0.326357,0.354056 -0.315602,0.905686 0.02428,1.245573 0.163613,0.163613 0.349318,0.242606 0.609027,0.259063 0.212693,0.01348 0.248781,0.0057 0.446281,-0.09653 0.18245,-0.09442 0.238219,-0.146017 0.36956,-0.341943 0.08507,-0.12691 0.199782,-0.271042 0.254903,-0.320293 0.179568,-0.160444 0.469223,-0.190819 0.701209,-0.07353 0.19631,0.09925 0.359621,0.375392 0.360068,0.608841 4.33e-4,0.226898 -0.350416,0.75694 -0.675777,1.020921 -0.429818,0.34873 -1.101911,0.564685 -1.588475,0.510404 z"
     id="path352" />
  <path
     style="opacity:1;fill:#ffffff;fill-opacity:1;stroke:#ffccaa;stroke-width:0.00390625;stroke-opacity:1"
     d="m 23.224609,15.152294 c -0.180804,-0.02473 -0.350583,-0.123551 -0.458199,-0.266682 -0.154207,-0.205097 -0.182457,-0.482853 -0.07259,-0.713737 0.134204,-0.282037 0.445704,-0.434604 0.757577,-0.371048 0.121974,0.02486 0.243112,0.08865 0.3329,0.175323 0.107426,0.103694 0.170022,0.216933 0.200916,0.363466 0.0092,0.04363 0.01036,0.05792 0.01053,0.129134 2.07e-4,0.09017 -0.0047,0.126484 -0.02748,0.203125 -0.01667,0.05612 -0.06258,0.149485 -0.09699,0.197266 -0.102907,0.142889 -0.250065,0.238053 -0.425957,0.275455 -0.04416,0.0094 -0.174976,0.01395 -0.220703,0.0077 z m 0.197266,-0.120295 c 0.229958,-0.04976 0.400323,-0.227705 0.440139,-0.459733 0.01085,-0.06325 0.0084,-0.151928 -0.0059,-0.212946 -0.05097,-0.217782 -0.215824,-0.379419 -0.436219,-0.427702 -0.0445,-0.0097 -0.145701,-0.01212 -0.193502,-0.0045 -0.179718,0.02852 -0.329919,0.134673 -0.413892,0.292526 -0.046,0.08647 -0.07213,0.203821 -0.06723,0.301876 0.01081,0.216119 0.162041,0.415973 0.370403,0.489494 0.03143,0.01109 0.09321,0.02576 0.124533,0.02958 0.03429,0.0042 0.147404,-0.0012 0.181641,-0.0086 z"
     id="path391" />
  <path
     style="opacity:1;fill:#ffffff;fill-opacity:1;stroke:#ffccaa;stroke-width:0.00390625;stroke-opacity:1"
     d="m 23.033102,14.829102 c -4.09e-4,-0.04373 0.01257,-0.724706 0.0143,-0.750448 l 0.0022,-0.03267 0.184182,0.0021 c 0.193813,0.0022 0.208851,0.0034 0.261996,0.02203 0.06501,0.02274 0.107029,0.0692 0.123877,0.136959 0.0032,0.01297 0.0052,0.0416 0.0051,0.07227 -2.58e-4,0.05621 -0.006,0.07803 -0.03094,0.117187 -0.03282,0.05158 -0.102528,0.0918 -0.159101,0.0918 -0.0081,0 -0.0148,0.0013 -0.01479,0.0029 7e-6,0.0016 0.04998,0.08027 0.111061,0.174805 l 0.111049,0.171875 -0.06306,0.0011 c -0.03468,5.92e-4 -0.06495,3.53e-4 -0.06725,-5.33e-4 -0.0023,-8.85e-4 -0.05226,-0.0774 -0.111012,-0.170022 L 23.293902,14.5 h -0.0698 -0.0698 v 0.169922 0.169922 h -0.06055 -0.06055 z m 0.337992,-0.424406 c 0.08068,-0.02281 0.116459,-0.06237 0.116956,-0.129305 2.01e-4,-0.02718 -0.0013,-0.03431 -0.01149,-0.05469 -0.01431,-0.02862 -0.03519,-0.04533 -0.07145,-0.05717 -0.02385,-0.0078 -0.03626,-0.0087 -0.138086,-0.01026 l -0.111884,-0.0017 -0.0023,0.05215 c -0.0013,0.02868 -0.003,0.08792 -0.004,0.13163 l -0.0017,0.07948 0.100229,-0.0017 c 0.07834,-0.0014 0.105349,-0.0032 0.123667,-0.0084 z"
     id="path430" />
</svg>
