<?xml version="1.0" encoding="UTF-8" standalone="no"?>
<svg
   height="16"
   viewBox="0 0 16 16"
   width="16"
   version="1.1"
   id="svg15"
   sodipodi:docname="FmodEventEmitter2D.svg"
   inkscape:version="1.1.1 (3bf5ae0d25, 2021-09-20)"
   xmlns:inkscape="http://www.inkscape.org/namespaces/inkscape"
   xmlns:sodipodi="http://sodipodi.sourceforge.net/DTD/sodipodi-0.dtd"
   xmlns="http://www.w3.org/2000/svg"
   xmlns:svg="http://www.w3.org/2000/svg">
  <defs
     id="defs19" />
  <sodipodi:namedview
     id="namedview17"
     pagecolor="#505050"
     bordercolor="#eeeeee"
     borderopacity="1"
     inkscape:pageshadow="0"
     inkscape:pageopacity="0"
     inkscape:pagecheckerboard="0"
     showgrid="false"
     inkscape:zoom="5.6171875"
     inkscape:cx="-44.951321"
     inkscape:cy="6.0528512"
     inkscape:window-width="1920"
     inkscape:window-height="1018"
     inkscape:window-x="-6"
     inkscape:window-y="-6"
     inkscape:window-maximized="1"
     inkscape:current-layer="g13" />
  <linearGradient
     id="a"
     gradientUnits="userSpaceOnUse"
     x1="8"
     x2="8"
     y1="1"
     y2="15">
    <stop
       offset="0"
       stop-color="#ff5f5f"
       id="stop2" />
    <stop
       offset=".5"
       stop-color="#e1da5b"
       id="stop4" />
    <stop
       offset="1"
       stop-color="#5fff97"
       id="stop6" />
  </linearGradient>
  <g
     transform="translate(0 -1036.4)"
     id="g13">
    <path
       d="m10.023 1044.4c-.56139-.013-1.0235.4264-1.0234.9724v5.0542c.0006911.7482.83361 1.2154 1.5.8414l4-2.5262c.66694-.3743.66694-1.3104 0-1.6847l-4-2.5261c-.14505-.082-.30893-.1269-.47656-.131z"
       fill="#8da5f3"
       id="path9"
       style="fill:#2894ff;fill-opacity:1" />
    <path
       d="m11.971 1.002a1.0001 1.0001 0 0 0 -.24609.037109l-7 2a1.0001 1.0001 0 0 0 -.72461.96094v5.5508a2.5 2.5 0 0 0 -.5-.050781 2.5 2.5 0 0 0 -2.5 2.5 2.5 2.5 0 0 0 2.5 2.5 2.5 2.5 0 0 0 2.4961-2.4121 1.0001 1.0001 0 0 0 .0039062-.087891v-7.2441l5-1.4277v3.1719l2-1v-3.5a1.0001 1.0001 0 0 0 -1.0293-.99805z"
       fill="url(#a)"
       transform="translate(0 1036.4)"
       id="path11"
       style="fill:#78e9ff;fill-opacity:1" />
  </g>
</svg>
