<svg height="16" viewBox="0 0 512 512" width="16" xmlns="http://www.w3.org/2000/svg"><path d="m257 8.7c7.4.2 17.8.8 23 1.4 5.2.5 13.8 1.8 19 2.9s14.2 3.3 20 4.9c5.8 1.7 15.2 4.9 21 7.1 5.8 2.3 15.7 6.7 22 9.9s15.3 8.2 20 11.1 11.6 7.7 15.5 10.6c3.9 2.8 10.8 8.5 15.5 12.6 4.6 4 12 11.3 16.3 16.3s11 13.7 14.9 19.5 9 14.5 11.4 19.5c2.4 4.9 5.8 13.3 7.5 18.5 2.3 6.7 3.3 12 3.7 18 .3 6.1-.1 10.3-1.3 15-1 3.6-2.8 8.8-4.1 11.5-1.2 2.8-4.2 7.7-6.7 11-2.4 3.3-7.1 8-16.4 15l6.1 10.5c3.4 5.8 8 15.2 10.2 21 2.3 5.8 5.3 15.2 6.8 21 1.4 5.8 3.3 16.1 4.2 23 1.1 8.5 1.4 16 1 23.5-.3 6.1-1.4 16.2-2.5 22.5s-3.1 15.3-4.5 20-4.7 13.9-7.5 20.5-7.9 16.7-11.4 22.5c-3.4 5.8-8.9 14.1-12.2 18.5s-11.1 13.3-17.5 19.9c-6.3 6.5-15.1 14.7-19.5 18.3-4.4 3.5-12.5 9.4-18 13.1-5.5 3.6-15.6 9.4-22.5 12.8s-16.8 7.8-22 9.7c-5.2 2-13.8 4.7-19 6-5.2 1.4-13.8 3.3-19 4.2s-17.4 2-27 2.5c-14.3.6-20 .4-31.5-1.1-7.7-1-18.5-2.7-24-4-5.5-1.2-14.7-3.6-20.5-5.5-5.8-1.8-15.4-5.4-21.5-7.9s-15.7-7.1-21.5-10.2c-5.8-3-14.8-8.4-20-11.8-5.2-3.5-13.1-9.2-17.5-12.8-4.4-3.5-13-11.6-19-17.9-6-6.2-14-15.6-17.8-20.8-3.7-5.2-9.4-14.9-12.7-21.5s-7.1-15.6-8.6-20c-1.5-4.6-2.8-11.4-3.1-16-.3-5.4 0-10.4 1.1-15.5.9-4.1 3.1-10.4 4.9-14 1.8-3.7 6-9.4 9.7-13.3 3.6-3.8 8-7.8 13-10.7l-2.2-3.7c-1.2-2.1-4.1-7.2-6.5-11.3s-6.1-12-8.2-17.5c-2.2-5.5-5.1-14.3-6.5-19.5-1.5-5.2-3.3-14.6-4.1-20.7-.8-6.2-1.5-16.2-1.5-22.3s.7-16.1 1.5-22.2c.8-6.2 2.6-15.4 3.9-20.3s4.1-13.5 6.1-19 6-14.5 8.9-20 8-14 11.3-19c3.3-4.9 9.4-13 13.5-18 4.1-4.9 11.3-12.6 15.9-17s12.7-11.4 17.9-15.4 13.6-9.8 18.5-12.9c4.9-3 14.8-8.4 22-11.8s17.7-7.8 23.5-9.7 15.9-4.7 22.5-6.1c6.6-1.5 16.5-3.2 22-3.9s16.1-1.1 23.5-1z"/><path d="m255.3 55.2c5.9-.1 15.8.5 21.9 1.3 6.2.8 16.7 2.8 23.3 4.5s17.2 5.1 23.5 7.6 15.8 6.9 21 9.6c5.2 2.8 14.2 8.2 19.9 12.2 5.8 3.9 15 11.4 20.4 16.6 5.5 5.2 12.9 13.3 16.4 18s9 13.7 12.1 20c4.3 8.7 5.7 12.8 6 17 .4 4.8.1 5.9-2.2 8.7-1.6 2-4.1 3.7-6.4 4.3-2 .5-5.1.6-6.7.2-1.6-.3-4-1.8-5.3-3.2s-3.9-6.3-5.8-11c-1.8-4.7-5.3-11.4-7.7-15s-6.6-9-9.3-12.1-8-8.5-11.9-11.9-11.3-9-16.5-12.5-14-8.6-19.5-11.3c-5.5-2.8-14.5-6.6-20-8.5s-14.1-4.4-19-5.5c-4.9-1.2-13.9-2.6-20-3.3-6.3-.6-15-.8-20.5-.5-5.2.4-13.8 1.6-19 2.6-5.2 1.1-13.6 3.3-18.5 5.1-4.9 1.7-12.6 4.8-17 6.9s-11.6 6.2-16 9c-4.4 2.9-11.8 8.5-16.5 12.4-4.6 3.9-11.8 11.2-16 16.2-4.1 5.1-9.6 12.7-12.2 17-2.5 4.4-6.1 11.5-7.8 15.9-1.8 4.4-4.1 11.4-5.2 15.5-1 4.1-2.2 12.2-2.5 18-.4 6.4-.1 13.8.7 19 .6 4.7 2.1 11.4 3.2 15s3.8 10.1 6 14.5 6 10.9 8.6 14.5c2.5 3.6 8.2 10.1 12.7 14.5 4.4 4.4 12.3 10.9 17.5 14.4s13.1 8.1 17.5 10.3 13.2 5.8 19.5 7.9 15.1 4.5 19.5 5.4 10.8 1.9 20.5 3v-148.5h11.5c6.3 0 15.9.5 21.2 1.1 5.4.6 14.1 2 19.3 3.1s14.2 3.5 20 5.4 16.8 6.6 24.5 10.4 18.3 10 23.5 13.7c5.2 3.8 13.5 10.9 18.5 15.9 4.9 4.9 11.5 12.6 14.7 17 3.1 4.3 7.6 12 10.1 16.9s5.7 12.7 7.1 17.2c1.4 4.6 3.3 12.2 4.1 17 .8 4.9 1.5 14 1.5 20.3s-.7 15.8-1.5 21c-.9 5.2-3.1 14-4.9 19.5-1.9 5.5-5.2 13.6-7.4 18s-6.8 12.3-10.3 17.5-10.9 14.2-16.4 19.9-14.1 13.5-19 17.4c-4.9 3.8-13.1 9.3-18 12.2-4.9 3-12.6 7-17 9s-12.5 5.2-18 7-14.9 4.3-21 5.4c-6.1 1.2-16.4 2.4-23 2.8-6.9.3-16.7.1-23-.6-6.1-.7-15.3-2.1-20.5-3.3-5.2-1.1-14-3.5-19.5-5.3s-14.9-5.4-21-8.1-15.1-7.4-20-10.3c-4.9-3-13.1-8.4-18-12.1s-13.5-11.4-19-17.2c-5.5-5.7-12.1-13.5-14.7-17.3-2.5-3.9-6.8-11.5-9.4-17s-5-12.1-5.3-14.6c-.6-4.5-.4-4.9 3.5-8.8 3.6-3.5 4.8-4.1 8.5-4.1 2.5 0 5.7.8 7.4 1.8 2.3 1.4 3.9 4 6.7 10.8 2.1 4.9 6.1 12.3 8.9 16.4s7.2 9.9 9.8 12.8c2.5 2.9 8 8.1 12.1 11.6s10.9 8.5 15 11.3 12.7 7.6 19 10.8 16.7 7.5 23 9.6 15 4.5 19.2 5.3c4.3.9 12.4 2.1 18 2.7 5.7.6 14.4.8 19.3.4s12.8-1.3 17.5-2.1 13.2-3.1 19-5 15-5.8 20.5-8.6c5.5-2.7 13.1-7.2 17-9.8 3.9-2.7 10.6-8 14.9-11.7 4.4-3.7 11.1-10.7 15-15.4 3.9-4.8 9.2-12.2 11.8-16.5 2.5-4.4 6.1-11.5 7.8-15.9 1.8-4.4 4.2-11.4 5.3-15.5 1.7-6.1 2-10.5 2-23.5s-.3-17.4-2-23.5c-1.1-4.1-3.5-10.9-5.3-15-1.7-4.1-5.7-11.3-8.8-16s-9.4-12.3-14.2-17c-4.7-4.7-12.8-11.4-18-15-5.2-3.5-14-8.5-19.5-11.1s-13.6-6-18-7.4c-4.4-1.5-11.9-3.6-16.8-4.6-4.8-1-11.9-2.2-22.7-3.4v148.5h-12c-6.6 0-17.3-.7-23.8-1.5-6.4-.9-16.4-2.7-22.2-4.1s-14.8-4.2-20-6.1-14.7-6.2-21-9.4c-6.3-3.3-15.7-9-20.9-12.7s-13.1-10.3-17.6-14.7-10.8-11.6-14.1-16-8.2-12.5-11.1-18c-2.8-5.5-6.3-13.7-7.7-18.3-1.4-4.5-3.3-12.1-4.1-17-.8-4.8-1.5-13.9-1.5-20.2s.7-15.8 1.5-21c.9-5.2 3.1-14 4.9-19.5 1.9-5.5 5.3-13.8 7.6-18.5s6.9-12.3 10.1-17 8.6-11.7 12.1-15.6c3.5-4 9-9.6 12.3-12.5 3.3-3 8.7-7.5 12-10 3.3-2.6 9.8-7 14.5-10 4.7-2.9 12.6-7.2 17.5-9.5s13.7-5.8 19.5-7.7 15.4-4.5 21.5-5.6 12.6-2.2 14.5-2.4 8.3-.5 14.2-.5z" fill="#6ccdf4"/></svg>