<?xml version="1.0" encoding="UTF-8"?>
<svg version="1.1" xmlns="http://www.w3.org/2000/svg" width="1280" height="1280">
<path d="M0 0 C422.4 0 844.8 0 1280 0 C1280 422.4 1280 844.8 1280 1280 C857.6 1280 435.2 1280 0 1280 C0 857.6 0 435.2 0 0 Z " fill="#000000" transform="translate(0,0)"/>
<path d="M0 0 C8.02232763 13.52407668 15.20367107 27.26509924 21.83203125 41.52197266 C23.49332105 45.04665733 25.2395428 48.52391205 27 52 C28.06734375 51.9278125 29.1346875 51.855625 30.234375 51.78125 C49.36309817 50.55688993 67.93518948 50.94366932 87 53 C87.10779785 52.30213379 87.2155957 51.60426758 87.32666016 50.88525391 C88.09395826 47.5973899 89.31519854 44.88155667 90.7734375 41.8359375 C91.0533252 41.24996292 91.33321289 40.66398834 91.62158203 40.06025696 C92.53232433 38.16167174 93.45281923 36.26805293 94.375 34.375 C94.68624817 33.7314859 94.99749634 33.0879718 95.31817627 32.42495728 C100.70383662 21.30740815 106.56310422 10.54862716 113 0 C119.92516186 0.49419342 126.38116339 1.62947367 133.0625 3.5 C134.46773926 3.88986084 134.46773926 3.88986084 135.90136719 4.28759766 C153.83265302 9.40448783 171.10066809 16.15997893 188 24 C188.20561228 36.65372216 187.60964622 49.08544395 186.5 61.6875 C186.28349978 64.20485999 186.06921461 66.72237685 185.85803223 69.2401886 C185.72792955 70.78539399 185.59462592 72.33033484 185.45739746 73.87492371 C184.88967681 80.43083762 184.88967681 80.43083762 185 87 C187.27607815 88.87760508 189.04301886 90.0156892 191.625 91.3125 C193.01452119 92.07695936 194.40118369 92.84663446 195.78515625 93.62109375 C196.49172363 94.01151855 197.19829102 94.40194336 197.92626953 94.80419922 C201.10981415 96.63996582 204.08843689 98.72046027 207.0625 100.875 C207.6306543 101.28637207 208.19880859 101.69774414 208.78417969 102.12158203 C217.62317133 108.5946819 226.52050871 115.16614734 234.25390625 122.953125 C235.9999599 124.24010218 235.9999599 124.24010218 238.34375 123.73608398 C241.14927742 122.95863314 242.88838677 121.95540235 245.24609375 120.26953125 C249.72769218 117.16232672 254.32926051 114.3916406 259.0625 111.6875 C259.875979 111.22182617 260.68945801 110.75615234 261.52758789 110.27636719 C263.19779485 109.32103544 264.86860958 108.36676545 266.54003906 107.41357422 C268.92087654 106.04546694 271.28599305 104.65348021 273.6484375 103.25390625 C275.07797574 102.41901521 276.50765605 101.58436737 277.9375 100.75 C278.59306885 100.35514404 279.2486377 99.96028809 279.92407227 99.5534668 C282.31087809 98.17659646 284.30334021 97.02989398 287.09375 96.91015625 C290.11546061 98.6377326 292.27428808 101.11590783 294.5625 103.6875 C295.3524939 104.56100098 295.3524939 104.56100098 296.15844727 105.45214844 C301.2302209 111.12913297 305.93635004 117.06298351 310.55078125 123.11376953 C312.06832211 125.08892463 313.610141 127.0432377 315.15625 128.99609375 C321.0889907 136.53984604 326.66925437 144.24687927 331.875 152.3125 C332.40536865 153.11905029 332.9357373 153.92560059 333.48217773 154.7565918 C333.95985596 155.51367432 334.43753418 156.27075684 334.9296875 157.05078125 C335.35491699 157.71762939 335.78014648 158.38447754 336.21826172 159.0715332 C337.21739236 161.53628428 336.9493276 162.54170013 336 165 C334.9753418 166.94433594 334.9753418 166.94433594 333.69921875 168.984375 C333.22250732 169.7470166 332.7457959 170.5096582 332.25463867 171.29541016 C331.73748291 172.1054248 331.22032715 172.91543945 330.6875 173.75 C329.88759644 175.00949463 329.88759644 175.00949463 329.0715332 176.29443359 C323.78457449 184.5120463 317.99613131 192.29164505 312 200 C310.87464844 201.46373047 310.87464844 201.46373047 309.7265625 202.95703125 C305.27801724 208.72198276 305.27801724 208.72198276 304 210 C303.89649822 212.52898475 303.8584123 215.03098312 303.86196899 217.56066895 C303.85914771 218.36215567 303.85632643 219.1636424 303.85341966 219.9894166 C303.84503376 222.69673002 303.84373194 225.40400275 303.84228516 228.11132812 C303.83761938 230.04446021 303.83247622 231.97759119 303.82688904 233.91072083 C303.81558194 238.08718259 303.80715996 242.26363712 303.80076981 246.44010925 C303.79009955 253.05665753 303.76985271 259.67315447 303.74765015 266.28967285 C303.68570803 285.10992046 303.63185249 303.93016651 303.59863281 322.75048828 C303.58022254 333.13491047 303.55119774 343.51924798 303.5106281 353.90360785 C303.48964754 359.39548184 303.47411377 364.88724948 303.47182083 370.37916565 C303.46965561 375.56006494 303.45359744 380.74074365 303.42743111 385.92157555 C303.42030464 387.81079068 303.4181043 389.70003273 303.42153358 391.58925819 C303.46402639 419.48065033 296.90762299 444.89585555 276.8203125 465.18359375 C275.42425781 466.57771484 275.42425781 466.57771484 274 468 C273.35804688 468.71285156 272.71609375 469.42570312 272.0546875 470.16015625 C232.47906788 513.37389336 153.64051295 525.23765376 98.14630127 528.14974976 C91.16232927 528.43802169 84.17619049 528.5745245 77.1875 528.6875 C76.10894745 528.70646332 75.0303949 528.72542664 73.91915894 528.7449646 C-2.69656171 530.04773065 -98.562924 526.15189295 -158 471 C-159.43085938 469.70835937 -159.43085938 469.70835937 -160.890625 468.390625 C-178.07739694 452.16400792 -188.8818532 429.60548563 -190.10933423 405.88738012 C-190.27197439 400.10001815 -190.21518343 394.31173482 -190.17602539 388.52294922 C-190.17057951 386.58816782 -190.16615257 384.65338332 -190.16265869 382.71859741 C-190.1538758 378.576677 -190.13963976 374.43482446 -190.12156868 370.29293442 C-190.09470579 363.73588852 -190.09071032 357.17895054 -190.09165955 350.62185669 C-190.09173523 348.37016869 -190.09180095 346.11848068 -190.09185696 343.86679268 C-190.09190664 342.73988022 -190.09195633 341.61296776 -190.09200752 340.45190644 C-190.09107393 325.20461277 -190.07215142 309.95759772 -190.00366211 294.71044922 C-189.9575211 284.39842667 -189.94337478 274.08689299 -189.96551126 263.77478421 C-189.97587498 258.32758744 -189.96987162 252.8815149 -189.92436409 247.43447495 C-189.88174034 242.31372734 -189.88118075 237.19467088 -189.91221619 232.07385635 C-189.91614828 230.20141576 -189.90484085 228.32886764 -189.87669182 226.45663452 C-189.63097452 214.17781751 -189.63097452 214.17781751 -195.35691833 203.59280396 C-196.88988968 202.04712736 -198.43663114 200.51492412 -200 199 C-201.15991479 197.45889517 -202.2906916 195.89472907 -203.37109375 194.296875 C-203.87817871 193.55147461 -204.38526367 192.80607422 -204.90771484 192.03808594 C-205.6649585 190.9054834 -205.6649585 190.9054834 -206.4375 189.75 C-207.54293194 188.10414195 -208.64840119 186.45830894 -209.75390625 184.8125 C-210.56432373 183.60207031 -210.56432373 183.60207031 -211.39111328 182.3671875 C-212.92279702 180.11359031 -214.49571201 177.8972079 -216.08984375 175.6875 C-216.56172119 175.02008789 -217.03359863 174.35267578 -217.51977539 173.66503906 C-218.39586492 172.42705559 -219.28615641 171.19894837 -220.19311523 169.98339844 C-222.17255109 167.13999172 -222.99051849 165.18985599 -223.1640625 161.71484375 C-221.50758915 156.42858148 -218.65009995 152.33296863 -215.5 147.8125 C-214.54323364 146.41257812 -214.54323364 146.41257812 -213.56713867 144.984375 C-206.07842773 134.08894934 -198.11495384 123.7510777 -189.48535156 113.74121094 C-187.89509457 111.87702407 -186.33298412 109.99149781 -184.7734375 108.1015625 C-183.70312789 106.81770593 -182.63281546 105.5338517 -181.5625 104.25 C-181.06645264 103.6410791 -180.57040527 103.0321582 -180.05932617 102.40478516 C-175.82245412 97.36450555 -175.82245412 97.36450555 -172 97 C-169.85961914 97.78173828 -169.85961914 97.78173828 -167.53515625 99.0703125 C-166.66221924 99.54871582 -165.78928223 100.02711914 -164.88989258 100.52001953 C-163.95685303 101.04966309 -163.02381348 101.57930664 -162.0625 102.125 C-160.61750122 102.9291333 -160.61750122 102.9291333 -159.14331055 103.74951172 C-147.86464927 110.08991859 -136.76708516 116.82194322 -126 124 C-121.83537264 123.83092325 -119.19807963 120.82606521 -116.25 118.1875 C-103.28465692 106.93676648 -89.3423165 96.41800458 -74.0703125 88.4765625 C-71.86073077 87.21888297 -71.86073077 87.21888297 -71.44140625 85.15234375 C-71.48136719 84.42144531 -71.52132812 83.69054687 -71.5625 82.9375 C-71.60632813 82.04804688 -71.65015625 81.15859375 -71.6953125 80.2421875 C-72.1347805 75.56579728 -72.66081498 70.90118815 -73.21264648 66.23681641 C-74.13718012 58.2624067 -74.62050519 50.29278314 -74.91210938 42.27197266 C-74.97036811 40.76598443 -75.0392583 39.26036725 -75.11914062 37.75537109 C-75.22929465 35.67037946 -75.30673418 33.58672715 -75.375 31.5 C-75.42398438 30.3140625 -75.47296875 29.128125 -75.5234375 27.90625 C-75 25 -75 25 -72.94140625 23.31640625 C-71.97074219 22.88199219 -71.00007812 22.44757813 -70 22 C-68.88753906 21.44183594 -67.77507812 20.88367188 -66.62890625 20.30859375 C-56.92379905 15.76987477 -46.9671436 12.13044513 -36.8125 8.75 C-34.96217163 8.13209595 -34.96217163 8.13209595 -33.07446289 7.50170898 C-26.75854543 5.43383579 -20.41466793 3.4822573 -14.01171875 1.703125 C-12.83440186 1.37473633 -11.65708496 1.04634766 -10.4440918 0.70800781 C-6.86982035 -0.02676125 -3.63858919 -0.12649907 0 0 Z " fill="#478CBF" transform="translate(226,354)"/>
<path d="M0 0 C13.13189945 0.93648721 26.26188084 1.88835836 39.375 3.0625 C40.27621582 3.14161621 41.17743164 3.22073242 42.10595703 3.30224609 C43.36448486 3.41753662 43.36448486 3.41753662 44.6484375 3.53515625 C45.37208496 3.600979 46.09573242 3.66680176 46.84130859 3.73461914 C49 4 49 4 51.40625 4.49780273 C54.22974999 5.04448378 56.98335055 5.29338174 59.8515625 5.5 C61.49898437 5.62375 61.49898437 5.62375 63.1796875 5.75 C65.48433415 5.9172306 67.78902206 6.08389348 70.09375 6.25 C71.73730469 6.37375 71.73730469 6.37375 73.4140625 6.5 C74.91380615 6.60828125 74.91380615 6.60828125 76.44384766 6.71875 C79 7 79 7 82 8 C82.08564209 9.08418213 82.17128418 10.16836426 82.25952148 11.28540039 C82.57973116 15.33163991 82.9028441 19.37764336 83.22680664 23.42358398 C83.36626328 25.1702663 83.50494659 26.91701054 83.64282227 28.66381836 C83.84184697 31.18360043 84.04370888 33.7031421 84.24609375 36.22265625 C84.3065538 36.99585709 84.36701385 37.76905792 84.42930603 38.56568909 C85.05375997 46.90419521 85.05375997 46.90419521 87 55 C90.8912191 57.09697772 94.62320882 57.38193641 98.98657227 57.67016602 C99.67028397 57.71761963 100.35399567 57.76507324 101.0584259 57.81396484 C103.31063767 57.968374 105.5634285 58.11114868 107.81640625 58.25390625 C109.39482067 58.36000669 110.97318424 58.46686623 112.55149841 58.57444763 C116.70731812 58.85580085 120.86371638 59.12743247 125.02032471 59.39685059 C130.03456204 59.7235808 135.0480559 60.06148245 140.06165218 60.3978796 C143.97130423 60.66000967 147.88103942 60.92051215 151.79115295 61.17567444 C159.01170506 61.64900795 166.22501208 62.15743685 173.43234253 62.80769348 C177.80817136 63.13542427 182.17660412 63.14519599 186.5625 63.125 C187.87444336 63.13080078 187.87444336 63.13080078 189.21289062 63.13671875 C190.05142578 63.13542969 190.88996094 63.13414062 191.75390625 63.1328125 C192.49970947 63.13168457 193.2455127 63.13055664 194.01391602 63.12939453 C196.21123807 63.07063301 196.21123807 63.07063301 199 62 C201.29533383 57.79786673 201.67604755 53.17125154 202.25390625 48.48828125 C202.35968491 47.67884567 202.46546356 46.8694101 202.57444763 46.03544617 C202.91003019 43.46189103 203.23688545 40.88733379 203.5625 38.3125 C203.89272839 35.72711195 204.22486936 33.14201201 204.56126404 30.55741882 C204.76990998 28.95196666 204.97483114 27.34602518 205.17567444 25.73957825 C205.88808177 20.22383646 205.88808177 20.22383646 207 18 C217.28304538 17.97687624 227.56608462 17.95908475 237.84915066 17.94818783 C242.6234828 17.94295907 247.39779721 17.93586156 252.17211914 17.92456055 C256.77566262 17.9137314 261.37918899 17.90772311 265.98274422 17.90512276 C267.74309623 17.90326856 269.50344726 17.89964804 271.26379204 17.89426994 C273.72072277 17.88705914 276.17758195 17.88600907 278.63452148 17.88647461 C279.36963455 17.88287933 280.10474762 17.87928406 280.86213684 17.87557983 C285.88594784 17.88594784 285.88594784 17.88594784 287 19 C287.40869461 21.58732199 287.76330806 24.16332304 288.0859375 26.76171875 C288.29649409 28.37179465 288.50744436 29.98181911 288.71875 31.59179688 C289.04787918 34.13446676 289.37373862 36.67742936 289.69238281 39.22143555 C290.00140016 41.6737226 290.32399908 44.12393071 290.6484375 46.57421875 C290.73918549 47.32757004 290.82993347 48.08092133 290.9234314 48.85710144 C291.66390314 54.35084316 292.96055792 58.96055792 297 63 C299.50398186 63.21125405 301.86994976 63.28132687 304.375 63.25 C305.55400879 63.24202393 305.55400879 63.24202393 306.75683594 63.23388672 C317.58138863 63.07100297 328.36767733 62.12097893 339.15625 61.28662109 C343.16544943 60.98766275 347.17558265 60.71629715 351.1875 60.45703125 C351.86383484 60.41318298 352.54016968 60.36933472 353.23699951 60.32415771 C356.50842451 60.11274611 359.78000784 59.9040767 363.05175781 59.69775391 C370.17072015 59.24840814 370.17072015 59.24840814 377.2578125 58.46484375 C382.52829298 57.81015985 387.80230302 57.68713484 393.109375 57.5703125 C398.05530526 57.37947275 401.81714838 56.92156098 406 54 C408.48881539 49.4527452 408.53001534 44.6077025 408.8515625 39.54296875 C408.94719986 38.18852409 408.94719986 38.18852409 409.04476929 36.80671692 C409.2458423 33.93411424 409.43557202 31.06089174 409.625 28.1875 C409.75966811 26.23497427 409.89507643 24.28249944 410.03125 22.33007812 C410.36274592 17.55393269 410.68407361 12.77719954 411 8 C419.60178169 6.1623365 428.10364774 5.47699197 436.875 5 C445.3172905 4.53811177 453.57425418 3.85902219 461.91894531 2.48144531 C466.7396642 1.72816024 471.57807137 1.29338412 476.4375 0.875 C477.37787109 0.78863281 478.31824219 0.70226562 479.28710938 0.61328125 C483.88059148 0.20540335 488.38456533 -0.03935869 493 0 C493.59911937 30.1065166 491.66126629 58.82775541 469.9375 82 C467.97901635 84.02190526 465.99202868 86.01073037 464 88 C463.35804688 88.71285156 462.71609375 89.42570313 462.0546875 90.16015625 C422.47906788 133.37389336 343.64051295 145.23765376 288.14630127 148.14974976 C281.16232927 148.43802169 274.17619049 148.5745245 267.1875 148.6875 C266.10894745 148.70646332 265.0303949 148.72542664 263.91915894 148.7449646 C187.30343829 150.04773065 91.437076 146.15189295 32 91 C31.04609375 90.13890625 30.0921875 89.2778125 29.109375 88.390625 C11.42649393 71.69561438 0.88960246 48.67947606 -0.15795898 24.328125 C-0.19524227 20.61246761 -0.17576295 16.90295773 -0.125 13.1875 C-0.11597656 11.91068359 -0.10695312 10.63386719 -0.09765625 9.31835938 C-0.07438789 6.21203284 -0.04170155 3.10612428 0 0 Z " fill="#478CBF" transform="translate(36,734)"/>
<path d="M0 0 C17.5404275 12.64408485 21.12003553 33.45392007 26.31542969 53.13891602 C28.27355096 60.49052547 30.38802025 67.76765965 32.75 75 C33.03157959 75.88405518 33.31315918 76.76811035 33.60327148 77.67895508 C33.87341064 78.4861499 34.1435498 79.29334473 34.421875 80.125 C34.77137207 81.18074219 34.77137207 81.18074219 35.12792969 82.2578125 C35.99880757 84.35724645 35.99880757 84.35724645 39 86 C42.04638827 86.07575878 42.04638827 86.07575878 45 85 C47.29681129 81.74879455 48.63660424 78.52684412 49.796875 74.73828125 C50.11229248 73.71428223 50.42770996 72.6902832 50.75268555 71.63525391 C51.08179932 70.53874512 51.41091309 69.44223633 51.75 68.3125 C52.09780518 67.17216309 52.44561035 66.03182617 52.80395508 64.85693359 C55.58846592 55.62498055 58.12705235 46.33351778 60.47753906 36.98168945 C64.69595916 20.64778824 71.63342539 6.46160857 86.55078125 -2.5390625 C98.42699566 -8.70243932 111.0766786 -10.04531185 123.9375 -6.3125 C136.56096524 -1.8196657 146.14760223 5.11324145 152.6875 17.125 C156.95311213 26.34713327 159.48823074 36.15541777 162.15917969 45.93261719 C163.46460691 50.69492485 164.82659858 55.44080406 166.1875 60.1875 C166.5575415 61.47998657 166.5575415 61.47998657 166.93505859 62.79858398 C167.40529819 64.44028369 167.87613539 66.08181237 168.34765625 67.72314453 C168.76703475 69.18688851 169.1839114 70.65135286 169.59765625 72.11669922 C170.118213 73.95548404 170.65232839 75.7904155 171.1875 77.625 C171.46980469 78.60726562 171.75210937 79.58953125 172.04296875 80.6015625 C172.95772939 83.35242311 172.95772939 83.35242311 176 86 C182.93 86.495 182.93 86.495 190 87 C190 100.2 190 113.4 190 127 C170.89258882 127 158.17849627 125.51640141 144.1875 112.75 C131.18530103 98.57420587 127.9167413 75.80838245 122.85351562 57.88378906 C119.54320694 45.72780822 119.54320694 45.72780822 115 34 C112.20129973 32.60064987 110.09501208 32.74734595 107 33 C104.52574013 34.97752203 103.49730719 36.77822081 102.5625 39.76953125 C102.31290527 40.5574707 102.06331055 41.34541016 101.80615234 42.15722656 C101.54012207 43.0334668 101.2740918 43.90970703 101 44.8125 C100.70947754 45.7415918 100.41895508 46.67068359 100.11962891 47.62792969 C98.0764189 54.24513206 96.16449812 60.89668948 94.2734375 67.55859375 C93.91599457 68.81256706 93.91599457 68.81256706 93.55133057 70.09187317 C92.35259463 74.29824089 91.16440333 78.50700067 89.99609375 82.72192383 C85.38019268 99.16559 79.39405877 112.45240675 64.01171875 121.52734375 C52.90016136 126.96062149 40.7368505 129.07966785 28.6875 125.75 C27.11302055 125.19981958 25.54910176 124.61803542 24 124 C23.32582031 123.73316406 22.65164063 123.46632813 21.95703125 123.19140625 C9.35895075 117.53358567 0.91756131 107.72130532 -4 95 C-7.05562389 86.67245015 -9.25495671 78.07086578 -11.46484375 69.48828125 C-13.10904846 63.12185829 -14.97214033 56.8960146 -17.09863281 50.67382812 C-18.55060404 46.36668055 -19.74977371 41.99437222 -20.97265625 37.6171875 C-21.8296757 34.70055979 -21.8296757 34.70055979 -25 33 C-29.04581876 32.50189998 -29.04581876 32.50189998 -32.57562256 34.17936707 C-34.39814968 36.50891315 -34.9939713 38.59346154 -35.79003906 41.44262695 C-36.10757141 42.55841629 -36.42510376 43.67420563 -36.7522583 44.82380676 C-37.08666931 46.03308334 -37.42108032 47.24235992 -37.765625 48.48828125 C-38.31063589 50.39921434 -38.85566381 52.31014273 -39.40162277 54.22080517 C-40.74047814 58.91912926 -42.05742562 63.62363264 -43.37353516 68.32836914 C-55.13644102 110.30111183 -55.13644102 110.30111183 -71.1328125 119.875 C-74.05451091 121.36815299 -76.97414645 122.73316457 -80 124 C-80.81855469 124.3609375 -81.63710938 124.721875 -82.48046875 125.09375 C-90.86749829 128.11048 -98.98242676 127 -108 127 C-108 113.8 -108 100.6 -108 87 C-101.565 86.505 -101.565 86.505 -95 86 C-90.83344944 84.45195999 -90.83344944 84.45195999 -89.76171875 81.1484375 C-89.40722656 79.90320313 -89.05273438 78.65796875 -88.6875 77.375 C-88.48439209 76.67914795 -88.28128418 75.9832959 -88.07202148 75.26635742 C-87.61853151 73.70699133 -87.17208611 72.1455651 -86.73144531 70.58251953 C-85.9516301 67.82922004 -85.14626646 65.08431217 -84.3359375 62.33984375 C-80.78305943 50.28803334 -80.78305943 50.28803334 -77.4296875 38.1796875 C-72.9742205 21.65479756 -67.35050696 7.37826567 -52 -1.9375 C-50.01815869 -2.99315417 -48.01919844 -4.01768724 -46 -5 C-45.27296875 -5.3609375 -44.5459375 -5.721875 -43.796875 -6.09375 C-29.84123652 -11.84645594 -12.32934502 -7.65338597 0 0 Z " fill="#FCFCFC" transform="translate(764,592)"/>
<path d="M0 0 C13.2 0 26.4 0 40 0 C40.09046699 12.37866805 40.16381197 24.75711554 40.20724869 37.13603973 C40.22809899 42.88443817 40.25637035 48.63259816 40.30175781 54.38085938 C40.34530612 59.93109981 40.36915634 65.48111127 40.37950897 71.0315094 C40.38688416 73.1461599 40.40128621 75.26079826 40.42292023 77.37535095 C40.45207321 80.34360569 40.45595098 83.31092138 40.45410156 86.27929688 C40.46848267 87.14820557 40.48286377 88.01711426 40.49768066 88.91235352 C40.44912591 96.14221012 38.31131328 101.17506155 33.75 106.75 C26.94352131 112.31893711 21.54137393 113.66795098 12.6640625 113.3828125 C2.71439592 112.3432951 -5.04878083 108.88420394 -13 103 C-14.40557161 102.04594595 -15.82197471 101.10760568 -17.25 100.1875 C-17.85328125 99.78917969 -18.4565625 99.39085937 -19.078125 98.98046875 C-25.83043259 95.53569395 -35.79181782 95.78303921 -42.890625 97.8359375 C-50.28164019 101.21403953 -54.88761004 106.38849459 -58.9375 113.3125 C-61.20330258 121.17616777 -60.75102558 128.70633916 -57 136 C-53.27975704 142.44842113 -48.81419398 146.08539807 -42 149 C-32.1656884 150.09270129 -24.16988775 149.41212591 -15.875 143.9375 C-13.30938374 141.65465327 -11.80664959 139.10405128 -10.125 136.125 C-6.81983815 130.29082249 -2.50575595 125.16858532 4 123 C11.12787962 122.29757568 17.14675412 122.60367558 23 127 C27.7337486 131.54770608 30.1138681 135.25891444 30.4375 141.9375 C30.29463116 153.97023099 21.93505192 163.8874512 13.91015625 172.15234375 C-0.05874857 185.31292135 -18.2160839 191.44225052 -37.2265625 191.203125 C-53.73741979 190.31434179 -68.99291542 183.31353457 -81 172 C-81.69351562 171.34773437 -82.38703125 170.69546875 -83.1015625 170.0234375 C-96.27225458 156.44592868 -101.6865076 138.40268855 -101.54125977 119.84936523 C-100.89376357 101.72770968 -92.66708033 86.73374917 -80 74 C-79.40960937 73.37480469 -78.81921875 72.74960937 -78.2109375 72.10546875 C-65.62495879 59.82443666 -47.99599786 55.75131647 -30.98876953 55.82128906 C-19.12503617 56.0141953 -11.59273647 59.36290541 0 64 C0 42.88 0 21.76 0 0 Z " fill="#FDFDFD" transform="translate(1202,528)"/>
<path d="M0 0 C3.62397176 2.75321188 6.8292646 5.7405727 10 9 C10.69609375 9.67546875 11.3921875 10.3509375 12.109375 11.046875 C24.79002073 24.12071904 29.52042995 40.21256179 29.42236328 58.06860352 C28.88348849 77.74809948 20.40132735 93.98024077 6.5 107.625 C-7.6648416 119.95365843 -26.39767347 125.01482082 -44.86865234 124.17919922 C-62.94622353 122.65927513 -79.34664368 112.53600489 -91 99 C-103.75538515 81.81602999 -106.6703938 63.907306 -105 43 C-102.32487724 26.20617377 -91.2687024 10.81052807 -77.75708008 0.92797852 C-69.69266308 -4.65507941 -61.46322978 -7.6369403 -52 -10 C-51.34829834 -10.17740723 -50.69659668 -10.35481445 -50.02514648 -10.53759766 C-33.17620915 -14.3847209 -14.28372201 -8.87481258 0 0 Z " fill="#FDFDFD" transform="translate(1061,595)"/>
<path d="M0 0 C10.92740847 -0.20411437 21.46424746 0.57658947 32.3125 1.75 C35.83694788 2.12648634 39.36172304 2.49977297 42.88671875 2.87109375 C43.78894165 2.96674118 44.69116455 3.06238861 45.62072754 3.16093445 C51.29144838 3.7514832 56.96309098 4.25511909 62.64781189 4.6902771 C66.40313779 4.97781142 70.15649865 5.28773371 73.91000366 5.59802246 C75.70848365 5.74009763 77.50788173 5.87102605 79.30801392 5.99035645 C81.82576863 6.15853779 84.33751144 6.36616734 86.8515625 6.58203125 C87.59046219 6.62070816 88.32936188 6.65938507 89.09065247 6.69923401 C93.3135772 7.10633575 95.64264663 8.19478219 98.44750977 11.24145508 C100.76487764 14.31100157 101.78935224 16.65205566 101.98828125 20.5546875 C102.05466797 21.58335937 102.12105469 22.61203125 102.18945312 23.671875 C102.23005859 24.72890625 102.27066406 25.7859375 102.3125 26.875 C102.37244141 27.89335938 102.43238281 28.91171875 102.49414062 29.9609375 C102.61697628 32.0953721 102.72748366 34.23054624 102.82666016 36.36621094 C103.03274254 40.68639438 103.28530348 45.00295031 103.54296875 49.3203125 C103.61056145 50.45978836 103.61056145 50.45978836 103.67951965 51.62228394 C103.78595669 53.41487914 103.89291951 55.20744312 104 57 C104.99453941 57.06850662 104.99453941 57.06850662 106.00917053 57.13839722 C113.03615198 57.62284588 120.0629272 58.11021093 127.08959961 58.59912109 C129.69697174 58.78017748 132.30439222 58.9605391 134.91186523 59.14013672 C151.29032305 60.26881581 167.65031387 61.50919595 184 63 C184.04592285 61.87940186 184.0918457 60.75880371 184.13916016 59.60424805 C184.48121662 51.75188434 185.14267498 44.06854218 186.4375 36.3125 C186.55971924 35.5714502 186.68193848 34.83040039 186.80786133 34.06689453 C188.98466174 21.66238536 188.98466174 21.66238536 194 18 C197.30257581 17.39771923 200.57263798 17.46421758 203.92163086 17.49829102 C204.92855484 17.49288803 205.93547882 17.48748505 206.97291565 17.48191833 C210.30385669 17.46940374 213.63393796 17.48594201 216.96484375 17.50390625 C219.27885483 17.50375131 221.59286618 17.50226324 223.90687561 17.49949646 C228.75826479 17.49811119 233.6093588 17.51069126 238.46069336 17.53344727 C244.67956162 17.56181607 250.89793871 17.5591004 257.11684322 17.54635715 C261.89608454 17.53940168 266.67521234 17.54718811 271.45443916 17.55961418 C273.74736661 17.56413105 276.04030623 17.56446344 278.33323479 17.56054878 C281.53873534 17.55763834 284.74355951 17.57413693 287.94897461 17.59594727 C289.37129898 17.58919479 289.37129898 17.58919479 290.82235718 17.58230591 C295.67366867 17.63714772 299.09725231 17.77207077 303 21 C306.35442998 27.3978183 306.79959872 35.48562199 307.625 42.5625 C307.74617188 43.53896484 307.86734375 44.51542969 307.9921875 45.52148438 C308.70861267 51.34243889 309.35586064 57.17069428 310 63 C311.29446045 62.87447754 312.5889209 62.74895508 313.92260742 62.61962891 C327.30243908 61.34818807 340.68456822 60.36869251 354.1003418 59.56738281 C357.35560191 59.37241854 360.61041246 59.17088569 363.86523438 58.96875 C365.96872666 58.84076166 368.07224151 58.71314355 370.17578125 58.5859375 C371.61030388 58.49691666 371.61030388 58.49691666 373.07380676 58.40609741 C378.72745205 58.07280261 384.33646037 57.945755 390 58 C389.97679687 57.24203125 389.95359375 56.4840625 389.9296875 55.703125 C389.78590028 46.62398889 390.13804417 37.56559215 390.625 28.5 C390.66995605 27.28344727 390.71491211 26.06689453 390.76123047 24.81347656 C391.46304372 13.30119304 391.46304372 13.30119304 395.70800781 9.20410156 C401.24442776 6.29553497 407.93235556 6.45778507 414.0625 6.125 C416.25377472 5.97449307 418.44427341 5.81500107 420.63487244 5.65499878 C422.61899699 5.51512035 424.60454636 5.39590413 426.59008789 5.27783203 C429.49171294 5.0414141 432.15654073 4.57921265 435 4 C437.11075299 3.81375205 439.22467554 3.6617657 441.33984375 3.53515625 C442.56896484 3.45716797 443.79808594 3.37917969 445.06445312 3.29882812 C447.61122167 3.14342772 450.15809494 2.98973255 452.70507812 2.83789062 C460.17282552 2.36073066 467.48480532 1.53710491 474.88208008 0.41674805 C480.94640367 -0.39382281 486.88213953 -0.11543133 493 0 C493 6.27 493 12.54 493 19 C484.91355072 20.23772183 477.01054081 21.24410891 468.83984375 21.65625 C465.51236866 21.9541318 462.30514029 22.42257267 459.01171875 22.96484375 C451.65266889 24.12970658 444.3080972 24.62946749 436.875 25.0625 C434.30981847 25.21878749 431.74471241 25.37631899 429.1796875 25.53515625 C427.96893555 25.61008301 426.75818359 25.68500977 425.51074219 25.76220703 C420.66542193 26.09039493 415.83274701 26.5232408 411 27 C411.02070557 27.79817139 411.04141113 28.59634277 411.06274414 29.41870117 C411.24674844 37.97165405 410.75674584 46.46872738 410.1875 55 C410.11740723 56.18118408 410.04731445 57.36236816 409.97509766 58.5793457 C409.17141169 69.81731387 409.17141169 69.81731387 406 74 C401.28562218 77.27020906 396.97049043 77.45623993 391.4375 77.5625 C389.71599981 77.62362129 387.99464189 77.68886194 386.2734375 77.7578125 C385.39268555 77.79293945 384.51193359 77.82806641 383.60449219 77.86425781 C379.57412698 78.07431434 375.57442474 78.50844302 371.5625 78.9375 C359.91044063 80.14763091 348.2219937 80.71026373 336.52563477 81.30249023 C329.98740977 81.63762697 323.47918798 81.98135452 316.97753906 82.77954102 C313.23965979 83.19624534 309.50798879 83.34514265 305.75 83.4375 C304.97398437 83.48326172 304.19796875 83.52902344 303.3984375 83.57617188 C298.99845768 83.6625196 297.4997202 83.43410707 294.0546875 80.44140625 C286.8152674 69.95997157 287.46594468 48.750261 286 38 C259.93 37.67 233.86 37.34 207 37 C204.525 56.305 204.525 56.305 202 76 C199 81 199 81 196 83 C193.27333645 83.22120029 190.68092369 83.30312937 187.953125 83.27734375 C187.09108459 83.27274643 186.22904419 83.26814911 185.34088135 83.26341248 C171.54915002 83.06386719 157.78239344 81.81478873 144.03710938 80.74047852 C139.47065047 80.38512534 134.90342309 80.03981565 130.33627701 79.69342709 C126.77977206 79.42356786 123.22340335 79.15227328 119.66741943 78.87562561 C118.37177063 78.77559738 117.07612183 78.67556915 115.74121094 78.57250977 C114.4778894 78.47326202 113.21456787 78.37401428 111.91296387 78.27175903 C109.15094005 78.07993387 106.4036981 77.92281234 103.63879395 77.80905151 C102.9180582 77.7757244 102.19732246 77.74239729 101.45474625 77.70806026 C99.44863683 77.61838072 97.44187597 77.54363315 95.43511963 77.46983337 C91.81234628 76.97433394 89.88950328 76.19911278 87 74 C79.40760517 62.61140775 82.35826687 40.17577392 82 27 C81.21987549 26.9498877 80.43975098 26.89977539 79.63598633 26.84814453 C76.02774696 26.61298107 72.42015009 26.36903085 68.8125 26.125 C66.97268555 26.00705078 66.97268555 26.00705078 65.09570312 25.88671875 C59.25638295 25.48613214 53.50703192 24.98159369 47.73046875 24.02734375 C39.36563119 22.65758802 30.94493938 22.08428461 22.5 21.4375 C20.0707444 21.24938965 17.64163188 21.05982643 15.21276855 20.86671448 C13.71601922 20.74788351 12.21903698 20.63193757 10.72180176 20.51939392 C7.04453955 20.22923171 3.63519811 19.72703962 0 19 C0 12.73 0 6.46 0 0 Z " fill="#FBFDFD" transform="translate(36,715)"/>
<path d="M0 0 C1.03189453 0.00141495 2.06378906 0.0028299 3.12695312 0.00428772 C6.39716589 0.00984983 9.6673082 0.02239523 12.9375 0.03515625 C15.16536359 0.04017615 17.39322826 0.0447382 19.62109375 0.04882812 C25.0599443 0.05895257 30.498644 0.07853527 35.9375 0.09765625 C35.9375 13.29765625 35.9375 26.49765625 35.9375 40.09765625 C31.13058594 40.11892578 31.13058594 40.11892578 26.2265625 40.140625 C23.09543604 40.17130859 19.96451758 40.21038105 16.83349609 40.25024414 C14.67081143 40.27332698 12.50801591 40.28779686 10.34521484 40.29321289 C7.22163576 40.30257355 4.09977722 40.34372008 0.9765625 40.390625 C-0.45530899 40.38472603 -0.45530899 40.38472603 -1.91610718 40.37870789 C-10.19752826 40.55548781 -16.55365287 43.19904341 -22.9375 48.47265625 C-27.11787175 53.63664489 -30.17578986 58.59782744 -30.22071838 65.31143188 C-30.2305072 66.41643539 -30.24029602 67.5214389 -30.25038147 68.65992737 C-30.25613693 69.87768356 -30.2618924 71.09543976 -30.26782227 72.35009766 C-30.27772186 73.62810745 -30.28762146 74.90611725 -30.29782104 76.22285461 C-30.32489875 79.7329347 -30.34589276 83.24302826 -30.36582303 86.75315523 C-30.38766494 90.41939544 -30.4150624 94.08559395 -30.44187927 97.75180054 C-30.49183048 104.69678232 -30.53676028 111.64178722 -30.57990164 118.58681428 C-30.62925329 126.49242092 -30.68417909 134.39798572 -30.73958123 142.30355191 C-30.85343855 158.56821621 -30.95953348 174.8329188 -31.0625 191.09765625 C-44.2625 191.09765625 -57.4625 191.09765625 -71.0625 191.09765625 C-71.0625 162.71765625 -71.0625 134.33765625 -71.0625 105.09765625 C-82.2825 105.09765625 -93.5025 105.09765625 -105.0625 105.09765625 C-105.0625 92.22765625 -105.0625 79.35765625 -105.0625 66.09765625 C-93.8425 66.09765625 -82.6225 66.09765625 -71.0625 66.09765625 C-71.0625 62.46765625 -71.0625 58.83765625 -71.0625 55.09765625 C-67.91524629 40.94894043 -61.23285053 29.31919982 -51.0625 19.09765625 C-50.39734375 18.39769531 -49.7321875 17.69773437 -49.046875 16.9765625 C-35.6802687 3.8905529 -18.11676122 -0.09475874 0 0 Z " fill="#FDFDFD" transform="translate(656.0625,527.90234375)"/>
<path d="M0 0 C12.30730531 9.75834254 21.04420394 21.31435624 24 37 C25.61074609 51.63198191 22.92857011 66.05062887 14 78 C4.56399373 89.71865174 -6.73343577 98.51314037 -22.0625 100.8125 C-40.06693601 101.6698541 -53.89181331 98.89797296 -68 87 C-78.65367252 77.21289414 -85.32856609 64.56176192 -86.24609375 50.12890625 C-86.83971192 34.86963105 -82.57847526 22.31950661 -73.75 9.8125 C-73.1725 9.214375 -72.595 8.61625 -72 8 C-71.34 8 -70.68 8 -70 8 C-70 7.34 -70 6.68 -70 6 C-51.00663864 -11.41913681 -21.6130261 -15.19484661 0 0 Z " fill="#FBFCFC" transform="translate(443,580)"/>
<path d="M0 0 C9.9114537 6.88552702 17.74083988 18.38924208 21 30 C24.0066236 47.63459372 21.5852747 62.87884472 12 78 C2.20864055 90.24312843 -11.38350132 98.19462443 -27 100 C-43.11045104 100.94305079 -57.57363208 96.66449059 -70.0625 86.125 C-74.40294534 81.91734075 -77.78804741 77.10084698 -81 72 C-81.51433594 71.23042969 -82.02867188 70.46085938 -82.55859375 69.66796875 C-89.1264624 57.51118206 -89.74433978 42.02004117 -86.03125 28.97265625 C-82.56479531 18.98033801 -77.59015202 11.34210783 -70 4 C-69.27296875 3.278125 -68.5459375 2.55625 -67.796875 1.8125 C-48.40592631 -15.59978045 -20.78892827 -13.06581497 0 0 Z " fill="#FBFCFC" transform="translate(186,581)"/>
<path d="M0 0 C7.06481561 5.51024834 12.27408944 13.83998421 13.91796875 22.6484375 C15.03414315 34.97286321 12.76238304 44.98233458 4.91796875 54.6484375 C-1.12558039 61.46680064 -9.4092612 65.31365422 -18.4375 66.16796875 C-29.60933033 66.77770726 -37.71058471 64.67545036 -46.63671875 57.6328125 C-54.02411751 50.89938018 -58.54600095 42.28998568 -59.25 32.25390625 C-59.34568306 20.40834284 -56.02928314 11.56250583 -47.83203125 2.8359375 C-34.75725459 -9.67131964 -14.6975195 -9.54097889 0 0 Z " fill="#414143" transform="translate(429.08203125,599.3515625)"/>
<path d="M0 0 C8.3138557 5.82287222 15.01968142 13.69393505 17.609375 23.62109375 C18.68074825 37.01325941 16.28163276 45.84508958 8.671875 56.93359375 C0.14677417 65.45869458 -9.46387193 68.21296785 -21.16503906 68.25463867 C-28.54449758 68.07262401 -34.02135642 65.89810151 -40.140625 61.74609375 C-40.76324219 61.3284375 -41.38585937 60.91078125 -42.02734375 60.48046875 C-48.66071014 55.46784932 -52.7945465 48.00803698 -54.828125 40.05859375 C-55.98679117 27.77673234 -54.88215068 17.36948389 -46.828125 7.5234375 C-34.8015544 -5.14343663 -15.49897543 -9.0787794 0 0 Z " fill="#414143" transform="translate(177.140625,597.25390625)"/>
<path d="M0 0 C3.10322009 2.18348744 5.04830864 4.85833602 6.7265625 8.21484375 C6.83817989 10.12297457 6.88583287 12.03497871 6.90356445 13.94628906 C6.92281731 15.74891205 6.92281731 15.74891205 6.94245911 17.58795166 C6.94984604 18.8931073 6.95723297 20.19826294 6.96484375 21.54296875 C6.96891928 22.206632 6.9729948 22.87029526 6.97719383 23.55406952 C6.99805647 27.06875802 7.01235565 30.5834075 7.02172852 34.09814453 C7.03277615 37.72085551 7.06715525 41.34294937 7.10690022 44.96544266 C7.13310693 47.75709132 7.14142401 50.54859408 7.14500999 53.34035492 C7.15222307 55.32230895 7.17864781 57.30416309 7.20539856 59.28594971 C7.17843556 70.47786768 7.17843556 70.47786768 2.7265625 75.21484375 C-2.95250989 79.58796912 -8.26206681 80.91950412 -15.2734375 80.21484375 C-18.8359375 78.71484375 -18.8359375 78.71484375 -21.2734375 77.21484375 C-21.2734375 76.55484375 -21.2734375 75.89484375 -21.2734375 75.21484375 C-22.2634375 75.21484375 -23.2534375 75.21484375 -24.2734375 75.21484375 C-29.10290054 68.68203066 -28.88655485 62.61888197 -28.875 54.6875 C-28.88357025 53.38461533 -28.8921405 52.08173065 -28.90097046 50.73936462 C-28.91583496 47.98989516 -28.91535686 45.24093959 -28.90478516 42.49145508 C-28.89319702 38.98624727 -28.92707346 35.48315377 -28.9734745 31.97829533 C-29.01020463 28.61044574 -29.00257545 25.24304823 -29 21.875 C-29.01841949 20.62582291 -29.03683899 19.37664581 -29.05581665 18.08961487 C-28.98384295 11.2834452 -28.38747726 6.92383453 -23.88388062 1.67991638 C-16.96704164 -4.61255765 -7.76287026 -4.34535168 0 0 Z " fill="#FCFDFD" transform="translate(293.2734375,605.78515625)"/>
<path d="M0 0 C3.41185402 3.57054491 5.51569679 7.40832537 7.6875 11.8125 C8.1825 12.8025 8.1825 12.8025 8.6875 13.8125 C9.53695557 22.84099919 9.19069107 30.36857005 3.6875 37.8125 C-1.5659393 43.61546223 -6.93871962 47.42111026 -14.8046875 48.125 C-24.81298304 48.44209451 -30.72892745 47.29521261 -38.0625 40.5625 C-44.68127973 33.35302826 -46.0577458 27.36789595 -45.75390625 17.5078125 C-44.75991262 9.18641451 -40.92180944 3.37284926 -34.40625 -1.78125 C-23.21094741 -9.30048308 -10.81241453 -7.14027374 0 0 Z " fill="#020308" transform="translate(1041.3125,630.1875)"/>
<path d="M0 0 C7.18824183 4.08743163 10.78707229 7.84683486 13.1875 15.8125 C14.19589325 22.87125275 12.07472903 27.90024852 8.1875 33.8125 C4.34810733 38.12427868 -0.12559506 40.45053353 -5.828125 41.21875 C-12.59829091 41.41498669 -17.49616473 41.03315836 -22.93359375 36.77734375 C-27.39665846 32.11014718 -30.03240934 26.6743996 -30.3125 20.1875 C-29.82671166 13.28930557 -28.06795369 8.61792754 -22.875 3.9375 C-15.78669648 -1.93527556 -8.83138549 -2.75075941 0 0 Z " fill="#FBFBFB" transform="translate(665.8125,592.1875)"/>
<path d="M0 0 C4.91356872 2.88072012 8.39027571 7.10095325 10.5625 12.375 C11.49497708 19.24588373 11.23742831 25.01879432 7.05078125 30.69140625 C2.03643981 36.36379775 -2.68054138 39.01142336 -10.3125 39.75 C-15.82248245 39.57124103 -20.2288317 37.48105318 -24.203125 33.69140625 C-29.46679853 27.75060967 -30.96242581 23.41010619 -30.81640625 15.41796875 C-30.0601222 9.34430609 -26.80068763 5.38710511 -22.3125 1.4375 C-16.07449443 -3.03759095 -6.95458681 -3.19857905 0 0 Z " fill="#0A0A0F" transform="translate(1266.4375,679.625)"/>
<path d="M0 0 C4.91356872 2.88072012 8.39027571 7.10095325 10.5625 12.375 C11.49497708 19.24588373 11.23742831 25.01879432 7.05078125 30.69140625 C2.03643981 36.36379775 -2.68054138 39.01142336 -10.3125 39.75 C-15.82248245 39.57124103 -20.2288317 37.48105318 -24.203125 33.69140625 C-29.46679853 27.75060967 -30.96242581 23.41010619 -30.81640625 15.41796875 C-30.0601222 9.34430609 -26.80068763 5.38710511 -22.3125 1.4375 C-16.07449443 -3.03759095 -6.95458681 -3.19857905 0 0 Z M-23.75 8 C-27.2421242 12.91484147 -27.00259119 17.4773581 -26.4375 23.375 C-25.07755861 28.07651168 -23.20772302 30.76196535 -19.375 33.8125 C-14.82362066 36.23344646 -11.5765697 36.79623522 -6.4375 36.375 C-0.62101706 34.47596173 2.64033081 31.86867807 5.5625 26.375 C7.50045159 20.56114524 7.58305692 14.45391224 4.875 8.9375 C1.57884339 5.28500213 -1.74702833 1.64316793 -6.828125 1.13671875 C-14.5494689 0.93630135 -18.49659749 2.03667823 -23.75 8 Z " fill="#EAEAEB" transform="translate(1266.4375,679.625)"/>
<path d="M0 0 C13.32795657 -0.37022102 13.32795657 -0.37022102 16.41796875 1.33203125 C18 3 18 3 18.5625 5.875 C17.83264627 9.92974297 16.08265324 11.37974474 13 14 C13.3609375 14.55429687 13.721875 15.10859375 14.09375 15.6796875 C14.5578125 16.40414062 15.021875 17.12859375 15.5 17.875 C16.19609375 18.95394531 16.19609375 18.95394531 16.90625 20.0546875 C18 22 18 22 18 24 C16.68 24 15.36 24 14 24 C12.296875 22.1015625 12.296875 22.1015625 10.75 19.625 C10.22921875 18.81289063 9.7084375 18.00078125 9.171875 17.1640625 C8 15 8 15 8 13 C6.68 13 5.36 13 4 13 C4 16.63 4 20.26 4 24 C2.68 24 1.36 24 0 24 C0 16.08 0 8.16 0 0 Z " fill="#EAEBEB" transform="translate(1248,686)"/>
<path d="M0 0 C10.28304538 -0.02312376 20.56608462 -0.04091525 30.84915066 -0.05181217 C35.6234828 -0.05704093 40.39779721 -0.06413844 45.17211914 -0.07543945 C49.77566262 -0.0862686 54.37918899 -0.09227689 58.98274422 -0.09487724 C60.74309623 -0.09673144 62.50344726 -0.10035196 64.26379204 -0.10573006 C66.72072277 -0.11294086 69.17758195 -0.11399093 71.63452148 -0.11352539 C72.73719109 -0.1189183 72.73719109 -0.1189183 73.86213684 -0.12442017 C78.88594784 -0.11405216 78.88594784 -0.11405216 80 1 C80.07179964 2.51928038 80.08392007 4.04167482 80.0625 5.5625 C80.05347656 6.38878906 80.04445313 7.21507812 80.03515625 8.06640625 C80.02355469 8.70449219 80.01195312 9.34257813 80 10 C79.67 10 79.34 10 79 10 C79 7.36 79 4.72 79 2 C75.06221489 2.1387078 71.12485777 2.28718492 67.1875 2.4375 C66.06794922 2.47681641 64.94839844 2.51613281 63.79492188 2.55664062 C62.18520508 2.61948242 62.18520508 2.61948242 60.54296875 2.68359375 C59.0583313 2.73858032 59.0583313 2.73858032 57.54370117 2.79467773 C54.8781649 2.90790331 54.8781649 2.90790331 52 4 C50.16113281 3.87890625 50.16113281 3.87890625 47.953125 3.5625 C43.06900862 3.00917963 38.26701687 2.91679811 33.359375 2.9375 C32.58348022 2.94072266 31.80758545 2.94394531 31.00817871 2.94726562 C28.58874258 2.96110015 26.1693901 2.97970148 23.75 3 C20.53646142 3.02672646 17.32298348 3.04663158 14.109375 3.0625 C13.3842572 3.07079834 12.6591394 3.07909668 11.91204834 3.08764648 C7.82906614 3.1072492 4.00488711 2.79689881 0 2 C0 1.34 0 0.68 0 0 Z " fill="#6998BA" transform="translate(243,752)"/>
<path d="M0 0 C2.97 0 5.94 0 9 0 C9.625 2.375 9.625 2.375 10 5 C8 7 8 7 6.0546875 7.1953125 C4.03645833 7.13020833 2.01822917 7.06510417 0 7 C0 4.69 0 2.38 0 0 Z " fill="#07070C" transform="translate(1252,689)"/>
<path d="M0 0 C1.65 0 3.3 0 5 0 C4.67 0.66 4.34 1.32 4 2 C3.34 2 2.68 2 2 2 C2 10.91 2 19.82 2 29 C1.34 28.67 0.68 28.34 0 28 C0 18.76 0 9.52 0 0 Z " fill="#4F85AA" transform="translate(36,734)"/>
<path d="M0 0 C3.50023856 0.14042495 7.00012399 0.28833226 10.5 0.4375 C11.48226562 0.47681641 12.46453125 0.51613281 13.4765625 0.55664062 C19.0373059 0.79760617 24.48855309 1.21921169 30 2 C30 2.33 30 2.66 30 3 C25.93756043 3.05819473 21.87522854 3.09366215 17.8125 3.125 C16.66201172 3.14175781 15.51152344 3.15851562 14.32617188 3.17578125 C13.21435547 3.18222656 12.10253906 3.18867187 10.95703125 3.1953125 C9.42526245 3.21102295 9.42526245 3.21102295 7.86254883 3.22705078 C4.87387833 2.98999632 2.70576631 2.25617102 0 1 C0 0.67 0 0.34 0 0 Z " fill="#7CA6C4" transform="translate(55,736)"/>
<path d="M0 0 C2.35686011 3.53529016 2.54266927 6.39388014 2.8125 10.5 C2.87630859 11.17675781 2.94011719 11.85351562 3.00585938 12.55078125 C3.14453125 14.53125 3.14453125 14.53125 3 18 C2.01 18.99 1.02 19.98 0 21 C0 14.07 0 7.14 0 0 Z " fill="#5F92B5" transform="translate(208,615)"/>
<path d="M0 0 C0.66 0.33 1.32 0.66 2 1 C1.175 1.680625 0.35 2.36125 -0.5 3.0625 C-3.59742192 6.70197076 -3.25775624 8.36038767 -3 13 C-3.99 14.485 -3.99 14.485 -5 16 C-5.39013716 17.9896995 -5.73202649 19.99019869 -6 22 C-6.33 22 -6.66 22 -7 22 C-7.49584352 8.36430318 -7.49584352 8.36430318 -3.75390625 3.3203125 C-2.375 1.9375 -2.375 1.9375 0 0 Z " fill="#DFF0F7" transform="translate(230,733)"/>
<path d="M0 0 C0.33 0 0.66 0 1 0 C1 1.98 1 3.96 1 6 C0.34 6 -0.32 6 -1 6 C-1.0825 6.70125 -1.165 7.4025 -1.25 8.125 C-2.391307 12.50001015 -4.3380274 15.98435008 -8.25 18.375 C-8.8275 18.58125 -9.405 18.7875 -10 19 C-8.49291733 16.47766704 -6.97694703 13.96278265 -5.4296875 11.46484375 C-4.91664063 10.63082031 -4.40359375 9.79679688 -3.875 8.9375 C-3.35679687 8.10089844 -2.83859375 7.26429688 -2.3046875 6.40234375 C-1.12001621 4.22098793 -0.45891155 2.42327686 0 0 Z " fill="#6098C1" transform="translate(463,644)"/>
<path d="M0 0 C4.62 0 9.24 0 14 0 C14 0.33 14 0.66 14 1 C13.21753906 1.06058594 12.43507813 1.12117187 11.62890625 1.18359375 C10.61699219 1.26738281 9.60507812 1.35117187 8.5625 1.4375 C7.55316406 1.51871094 6.54382812 1.59992187 5.50390625 1.68359375 C3.06359221 1.73211468 3.06359221 1.73211468 2 3 C1.76321284 5.69235776 1.57801975 8.36498156 1.4375 11.0625 C1.39431641 11.82111328 1.35113281 12.57972656 1.30664062 13.36132812 C1.20026367 15.24065438 1.09960066 17.12030244 1 19 C0.67 19 0.34 19 0 19 C0 12.73 0 6.46 0 0 Z " fill="#DFEAED" transform="translate(36,715)"/>
<path d="M0 0 C-6.03764948 3.25104203 -11.05349838 4.28599822 -17.875 3.625 C-18.56335938 3.56828125 -19.25171875 3.5115625 -19.9609375 3.453125 C-21.64157689 3.31307172 -23.32096005 3.15807755 -25 3 C-25 2.67 -25 2.34 -25 2 C-22.14633646 1.66178803 -19.29219404 1.3293022 -16.4375 1 C-15.63763672 0.90460937 -14.83777344 0.80921875 -14.01367188 0.7109375 C-9.30547833 0.17285824 -4.73852735 -0.10176703 0 0 Z " fill="#D3E8F2" transform="translate(478,719)"/>
<path d="M0 0 C0.99 0.33 1.98 0.66 3 1 C2.34 5.95 1.68 10.9 1 16 C0.67 16 0.34 16 0 16 C0 10.72 0 5.44 0 0 Z " fill="#618EB2" transform="translate(138,739)"/>
<path d="M0 0 C3.3 0 6.6 0 10 0 C7 3 7 3 4.95703125 3.07421875 C1.97851562 2.53710938 1.97851562 2.53710938 -1 2 C-0.67 1.34 -0.34 0.68 0 0 Z " fill="#E8F8FC" transform="translate(398,774)"/>
<path d="M0 0 C0 4.10589421 -1.42485131 5.8680624 -4 9 C-6.75 9.375 -6.75 9.375 -9 9 C-6 6 -3 3 0 0 Z " fill="#5F97BF" transform="translate(195,661)"/>
<path d="M0 0 C0.66 0 1.32 0 2 0 C1.64950425 3.24208567 1.43778819 4.61527704 -1.0625 6.8125 C-1.701875 7.204375 -2.34125 7.59625 -3 8 C-1.125 2.25 -1.125 2.25 0 0 Z " fill="#5B94BC" transform="translate(203,648)"/>
</svg>
